<svg xmlns="http://www.w3.org/2000/svg" width="32" height="32" viewBox="0 0 24 24"><!-- Icon from Simple Icons by Simple Icons Collaborators - https://github.com/simple-icons/simple-icons/blob/develop/LICENSE.md --><path fill="currentColor" d="M1.492 4.62C.177 4.623-.492 6.203.422 7.149l3.47 3.468q3.61 3.571 7.202 7.16l1.07 1.115c.94.953 2.562.266 2.532-1.072v-3.425a1.52 1.52 0 0 0-1.502-1.5H9.038a2.6 2.6 0 0 1-2.615-2.615V6.12a1.52 1.52 0 0 0-1.502-1.5Zm9.26 0c-1.315.002-1.985 1.582-1.072 2.529q5.897 5.892 11.789 11.788c.94.952 2.559.267 2.53-1.07v-3.43a1.52 1.52 0 0 0-1.501-1.5c-1.4.014-2.8-.018-4.201-.042a2.6 2.6 0 0 1-2.613-2.615V6.12a1.52 1.52 0 0 0-1.502-1.5Zm8.273 0c-1.351-.007-2.012 1.645-1.029 2.572l3.431 3.43c.948.913 2.528.243 2.53-1.073V6.12a1.52 1.52 0 0 0-1.5-1.5z"/></svg>